<?xml version="1.0" encoding="UTF-8" standalone="no"?>
<!DOCTYPE svg  PUBLIC '-//W3C//DTD SVG 1.1//EN'  'http://www.w3.org/Graphics/SVG/1.1/DTD/svg11.dtd'>
<svg xmlns="http://www.w3.org/2000/svg" xml:space="preserve" height="162.55px" width="162.55px" version="1.1" y="0px" x="0px" xmlns:xlink="http://www.w3.org/1999/xlink" viewBox="0 0 162.548 162.547">
<switch>
	<g>
		<g id="icons">
					<path d="m91.853 135.48c-0.381-0.373-0.855-0.553-1.43-0.553-0.564 0-1.039 0.18-1.422 0.553-0.387 0.366-0.58 0.832-0.58 1.4 0 0.577 0.188 1.049 0.564 1.422 0.375 0.371 0.854 0.56 1.438 0.56 0.582 0 1.064-0.188 1.438-0.555 0.379-0.37 0.566-0.847 0.566-1.427 0-0.55-0.192-1.02-0.574-1.39m-0.666 2.21c-0.189 0.211-0.443 0.314-0.764 0.314-0.318 0-0.574-0.104-0.764-0.314-0.189-0.205-0.283-0.469-0.283-0.789 0-0.326 0.094-0.594 0.283-0.807 0.189-0.211 0.445-0.314 0.764-0.314 0.326 0 0.582 0.104 0.768 0.312 0.189 0.207 0.283 0.475 0.283 0.809 0 0.32-0.096 0.59-0.287 0.79z" fill="#030404"/>
					<path d="m101.56 135.48c-0.383-0.373-0.857-0.553-1.43-0.553-0.564 0-1.041 0.18-1.422 0.553-0.387 0.366-0.58 0.832-0.58 1.4 0 0.577 0.188 1.049 0.564 1.422 0.375 0.371 0.854 0.56 1.438 0.56s1.062-0.188 1.439-0.555c0.377-0.37 0.564-0.847 0.564-1.427 0-0.55-0.19-1.02-0.57-1.39m-0.67 2.21c-0.188 0.211-0.443 0.314-0.762 0.314s-0.574-0.104-0.762-0.314c-0.191-0.205-0.285-0.469-0.285-0.789 0-0.326 0.094-0.594 0.285-0.807 0.188-0.211 0.443-0.314 0.762-0.314 0.326 0 0.584 0.104 0.768 0.312 0.189 0.207 0.283 0.475 0.283 0.809 0 0.32-0.1 0.59-0.29 0.79z" fill="#030404"/>
					<path d="m73.741 137.42c-0.108 0.453-0.332 0.809-0.668 1.064-0.333 0.258-0.737 0.384-1.211 0.384-0.568 0-1.038-0.187-1.407-0.556-0.367-0.371-0.552-0.841-0.552-1.408 0-0.584 0.182-1.054 0.543-1.42 0.359-0.367 0.828-0.551 1.408-0.551 0.488 0 0.896 0.12 1.219 0.361 0.341 0.25 0.56 0.611 0.662 1.081h-0.934c-0.186-0.399-0.514-0.603-0.977-0.603-0.32 0-0.568 0.11-0.745 0.322-0.179 0.209-0.265 0.482-0.265 0.809 0 0.314 0.096 0.58 0.288 0.797 0.194 0.221 0.448 0.328 0.759 0.328 0.479 0 0.791-0.202 0.939-0.609h0.941" fill="#030404"/>
					<path d="m64.405 137.03c0.077 0.096 0.139 0.199 0.182 0.312 0.045 0.111 0.064 0.23 0.059 0.354-0.006 0.158-0.047 0.304-0.124 0.438-0.077 0.133-0.18 0.25-0.306 0.35-0.128 0.102-0.277 0.179-0.449 0.234-0.17 0.055-0.35 0.08-0.537 0.076-0.266-0.012-0.506-0.07-0.717-0.181-0.213-0.109-0.375-0.256-0.486-0.437l0.714-0.432c0.027 0.088 0.089 0.16 0.183 0.22s0.203 0.089 0.33 0.089c0.145 0.005 0.27-0.029 0.379-0.104 0.107-0.074 0.16-0.166 0.16-0.277l-0.008-0.07v-0.016l-0.008-0.023-0.01-0.025c-0.037-0.082-0.109-0.148-0.215-0.201l-0.074-0.029 0.008-0.006c-0.078-0.039-0.162-0.076-0.256-0.111-0.096-0.037-0.189-0.074-0.287-0.115-0.096-0.041-0.191-0.084-0.285-0.129-0.094-0.046-0.184-0.1-0.266-0.162v-0.008l-0.023-0.021c-0.117-0.095-0.208-0.205-0.275-0.332-0.066-0.127-0.096-0.263-0.091-0.406 0.006-0.143 0.045-0.276 0.116-0.4 0.072-0.125 0.167-0.232 0.286-0.322 0.119-0.092 0.259-0.164 0.419-0.216 0.159-0.054 0.332-0.077 0.514-0.073 0.236 0.012 0.451 0.061 0.643 0.15 0.189 0.092 0.34 0.214 0.45 0.366l-0.696 0.417c-0.031-0.053-0.086-0.099-0.16-0.137-0.076-0.037-0.159-0.057-0.254-0.057-0.127-0.005-0.235 0.021-0.326 0.078-0.092 0.057-0.138 0.127-0.138 0.207l0.009 0.052c0.012 0.053 0.039 0.098 0.083 0.136 0.044 0.039 0.099 0.068 0.165 0.093 0.105 0.054 0.226 0.106 0.36 0.163 0.136 0.054 0.272 0.115 0.41 0.182 0.101 0.039 0.2 0.094 0.298 0.164l0.043 0.037c0.053 0.04 0.114 0.1 0.18 0.17" fill="#030404"/>
					<path d="m63.272 138.84h-0.045c-0.273-0.01-0.521-0.073-0.74-0.186s-0.389-0.267-0.504-0.457l-0.027-0.043 0.812-0.49 0.02 0.062c0.024 0.074 0.077 0.136 0.162 0.19 0.084 0.055 0.188 0.082 0.303 0.082h0.027c0.121 0 0.229-0.032 0.322-0.096 0.094-0.064 0.139-0.141 0.139-0.234l-0.006-0.053-0.002-0.02-0.008-0.037c-0.039-0.075-0.102-0.133-0.197-0.182l-0.064-0.025-0.094-0.025 0.021-0.02c-0.057-0.024-0.117-0.049-0.182-0.073-0.094-0.036-0.189-0.075-0.287-0.116-0.096-0.04-0.192-0.084-0.288-0.131-0.097-0.047-0.19-0.104-0.273-0.166l-0.021-0.015v-0.011l-0.008-0.005c-0.119-0.1-0.215-0.216-0.285-0.349-0.07-0.135-0.103-0.279-0.098-0.432 0.006-0.15 0.048-0.293 0.124-0.424 0.073-0.131 0.175-0.244 0.299-0.338 0.122-0.095 0.269-0.17 0.434-0.225 0.151-0.049 0.315-0.074 0.487-0.074h0.044c0.245 0.01 0.468 0.063 0.663 0.156 0.197 0.094 0.355 0.223 0.471 0.382l0.033 0.045-0.787 0.47-0.027-0.041c-0.027-0.045-0.074-0.084-0.141-0.118s-0.145-0.052-0.23-0.052l-0.029-0.001c-0.104 0-0.195 0.024-0.27 0.072-0.076 0.048-0.113 0.101-0.113 0.163l0.002 0.027 0.005 0.014 0.066 0.107c0.04 0.035 0.089 0.062 0.149 0.084 0.109 0.055 0.225 0.107 0.363 0.162 0.134 0.055 0.273 0.117 0.413 0.185 0.098 0.038 0.202 0.095 0.306 0.169l0.045 0.04c0.055 0.042 0.117 0.103 0.188 0.175 0.082 0.102 0.145 0.212 0.191 0.329 0.047 0.118 0.066 0.243 0.062 0.375-0.006 0.165-0.05 0.32-0.132 0.462-0.08 0.139-0.188 0.262-0.318 0.365s-0.287 0.186-0.465 0.241c-0.162 0.08-0.334 0.1-0.51 0.1m-1.173-0.65c0.105 0.154 0.251 0.28 0.437 0.375 0.204 0.105 0.438 0.164 0.695 0.174l0.042 0.001c0.166 0 0.328-0.024 0.48-0.073 0.164-0.055 0.309-0.129 0.43-0.225s0.221-0.209 0.295-0.337c0.072-0.126 0.111-0.265 0.117-0.414 0.004-0.117-0.014-0.229-0.055-0.334-0.041-0.107-0.102-0.207-0.175-0.3-0.062-0.066-0.12-0.122-0.173-0.162l-0.044-0.039c-0.093-0.065-0.188-0.119-0.283-0.154-0.142-0.068-0.278-0.13-0.411-0.185-0.14-0.058-0.26-0.109-0.365-0.163-0.064-0.023-0.127-0.057-0.176-0.1-0.05-0.043-0.082-0.097-0.098-0.158l-0.011-0.068c0-0.098 0.054-0.184 0.161-0.25 0.092-0.059 0.201-0.088 0.324-0.088l0.031 0.001h0.002c0.1 0 0.191 0.021 0.273 0.063 0.063 0.033 0.113 0.07 0.151 0.113l0.606-0.362c-0.102-0.124-0.235-0.228-0.396-0.306-0.184-0.087-0.395-0.135-0.623-0.145l-0.041-0.001c-0.16 0-0.313 0.022-0.455 0.069-0.154 0.051-0.291 0.121-0.404 0.207-0.113 0.087-0.205 0.189-0.271 0.309-0.067 0.115-0.104 0.242-0.109 0.378-0.006 0.134 0.023 0.261 0.086 0.379 0.062 0.12 0.15 0.228 0.26 0.317l0.043 0.043c0.074 0.053 0.152 0.102 0.236 0.141 0.094 0.045 0.188 0.088 0.283 0.129 0.098 0.041 0.191 0.078 0.285 0.113 0.094 0.037 0.184 0.074 0.262 0.113l0.07 0.035-0.002 0.002c0.113 0.058 0.193 0.133 0.236 0.225l0.014 0.047 0.008 0.03 0.01 0.079c0 0.129-0.062 0.234-0.185 0.318-0.11 0.076-0.237 0.113-0.38 0.113h-0.029c-0.133 0-0.254-0.031-0.355-0.097-0.083-0.053-0.143-0.116-0.18-0.187l-0.616 0.39z" fill="#030404"/>
					<path d="m82.001 135.13c0.225 0.148 0.404 0.342 0.538 0.584s0.202 0.506 0.202 0.793v2.151h-0.74v-2.151c0-0.125-0.025-0.242-0.071-0.352-0.048-0.109-0.114-0.207-0.198-0.29-0.083-0.083-0.18-0.149-0.291-0.198-0.109-0.047-0.227-0.07-0.352-0.07-0.123 0-0.242 0.023-0.354 0.07-0.113 0.049-0.209 0.115-0.291 0.198s-0.146 0.181-0.193 0.29c-0.049 0.109-0.072 0.227-0.072 0.352v2.151h-0.739v-6.348h0.738v2.819c0.129-0.087 0.272-0.152 0.428-0.201 0.154-0.047 0.316-0.072 0.482-0.072 0.168 0 0.33 0.025 0.485 0.072 0.156 0.06 0.299 0.12 0.428 0.21" fill="#030404"/>
					<path d="m82.79 138.71h-0.84v-2.203c0-0.117-0.023-0.229-0.068-0.332s-0.107-0.195-0.187-0.274-0.171-0.142-0.274-0.186c-0.207-0.091-0.455-0.091-0.666 0-0.105 0.044-0.197 0.106-0.273 0.185-0.076 0.08-0.139 0.172-0.184 0.275s-0.066 0.215-0.066 0.332v2.203h-0.842v-6.449h0.842v2.776c0.109-0.064 0.23-0.118 0.359-0.157 0.32-0.098 0.678-0.098 0.998 0 0.16 0.05 0.309 0.119 0.44 0.207 0.231 0.152 0.418 0.355 0.554 0.602 0.139 0.248 0.207 0.523 0.207 0.818v2.2m-0.738-0.1h0.637v-2.1c0-0.277-0.066-0.535-0.195-0.768s-0.304-0.424-0.521-0.568c-0.123-0.081-0.261-0.146-0.413-0.193-0.3-0.092-0.638-0.092-0.938 0-0.151 0.047-0.29 0.112-0.413 0.193l-0.08 0.055v-2.863h-0.637v6.244h0.637v-2.1c0-0.131 0.025-0.256 0.076-0.373 0.049-0.114 0.119-0.217 0.203-0.305 0.086-0.088 0.189-0.159 0.307-0.209 0.237-0.101 0.516-0.101 0.748 0 0.113 0.05 0.218 0.121 0.307 0.209 0.088 0.088 0.156 0.19 0.207 0.305 0.051 0.117 0.076 0.242 0.076 0.373v2.12z" fill="#030404"/>
					<rect y="132.46" x="107.83" height="6.262" width=".906" fill="#030404"/>
					<path d="m111.19 127.3c-0.328-0.004-0.66-0.018-1.031-0.042-0.121-0.011-0.234-0.015-0.342-0.03-0.346-0.027-0.656-0.065-0.949-0.109-0.1-0.015-0.197-0.033-0.295-0.052l-0.119-0.022c-0.195-0.033-0.389-0.076-0.58-0.117l-0.105-0.023c-0.125-0.027-0.25-0.056-0.377-0.09-0.248-0.061-0.5-0.134-0.762-0.217-0.172-0.055-0.352-0.117-0.574-0.193-0.098-0.037-0.201-0.074-0.297-0.112-0.389-0.146-0.766-0.304-1.127-0.474l-0.033-0.019-0.064-0.033c-0.836-0.4-1.619-0.864-2.324-1.37l-0.074-0.055 0.008-0.012c-3.471-2.543-5.732-6.424-6.225-10.679h-23.793c0.869 5.739 5.875 10.052 11.685 10.052 2.537 0 4.963-0.807 7.02-2.328v-0.021l0.039-0.029c0.49-0.367 0.9-0.718 1.254-1.068l0.066-0.066 2.594 2.482-0.057 0.068c-3.014 3.607-8.457 4.561-10.916 4.561-5.894 0-11.164-3.26-13.801-8.521-2.592 4.975-7.662 8.058-13.277 8.058-0.102 0-10.443-0.005-10.492-0.005l-0.094-0.002v-29.937l0.094-0.002c0.045 0 10.391-0.002 10.492-0.002 5.615 0 10.686 3.082 13.277 8.057 2.637-5.262 7.907-8.521 13.801-8.521 5.803 0 11.033 3.189 13.703 8.336 1.1-2.112 2.686-3.961 4.6-5.363l0.066-0.066c0.705-0.508 1.488-0.973 2.326-1.375l0.066-0.031 0.031-0.014c0.355-0.17 0.734-0.332 1.125-0.479 0.096-0.037 0.199-0.075 0.297-0.111 0.189-0.066 0.379-0.133 0.574-0.191 0.268-0.086 0.518-0.158 0.762-0.221 0.141-0.035 0.285-0.068 0.428-0.1l0.055-0.013c0.191-0.042 0.385-0.081 0.58-0.116l0.141-0.026c0.09-0.017 0.182-0.032 0.273-0.048 0.287-0.045 0.602-0.081 0.951-0.113 0.105-0.01 0.215-0.018 0.322-0.025 0.391-0.026 0.723-0.041 1.035-0.042l0.066-0.001 0.029 0.001c0.322 0.001 0.658 0.016 1.035 0.04 0.111 0.008 0.227 0.016 0.34 0.027 0.348 0.032 0.66 0.068 0.947 0.113 0.092 0.016 0.182 0.031 0.273 0.048l0.143 0.026c0.195 0.035 0.387 0.074 0.576 0.116l0.043 0.011c0.148 0.031 0.295 0.064 0.443 0.102 0.242 0.062 0.492 0.135 0.762 0.221 0.211 0.062 0.416 0.135 0.574 0.191 0.076 0.028 0.154 0.059 0.232 0.086l0.068 0.025c0.381 0.146 0.76 0.306 1.123 0.479l0.096 0.045c0.842 0.406 1.625 0.867 2.326 1.375l0.08 0.057-0.01 0.014c0.633 0.461 1.246 0.99 1.83 1.577l0.07 0.069-2.602 2.489-0.066-0.065c-0.492-0.488-1.029-0.936-1.594-1.33l-0.061-0.043c-0.062-0.041-0.121-0.082-0.182-0.123-0.248-0.16-0.496-0.311-0.738-0.449l-0.076-0.043-0.092-0.053c-0.639-0.342-1.316-0.629-2.016-0.853l-0.189-0.054c-0.287-0.086-0.578-0.162-0.875-0.227-0.084-0.018-0.168-0.035-0.252-0.051-0.268-0.053-0.562-0.098-0.893-0.137l-0.096-0.012-0.131-0.016c-0.398-0.038-0.77-0.057-1.133-0.057s-0.734 0.019-1.133 0.057l-0.129 0.016-0.096 0.012c-0.328 0.039-0.621 0.084-0.891 0.137-0.086 0.016-0.172 0.033-0.252 0.051-0.297 0.064-0.59 0.141-0.875 0.227l-0.191 0.057c-0.701 0.221-1.379 0.508-2.018 0.852l-0.092 0.053-0.072 0.041c-0.262 0.147-0.51 0.299-0.74 0.449-0.08 0.055-0.162 0.111-0.242 0.166-3.186 2.217-5.092 5.848-5.092 9.717 0 3.867 1.906 7.499 5.092 9.715 0.09 0.061 0.166 0.113 0.242 0.168 0.229 0.148 0.477 0.298 0.74 0.447l0.076 0.045 0.088 0.051c0.641 0.342 1.318 0.628 2.018 0.854l0.123 0.033 0.066 0.019c0.287 0.087 0.58 0.161 0.877 0.228 0.082 0.019 0.168 0.035 0.252 0.054 0.273 0.052 0.564 0.097 0.895 0.134l0.09 0.012 0.131 0.016c0.404 0.041 0.775 0.061 1.133 0.061s0.729-0.02 1.133-0.061l0.131-0.016 0.096-0.012c0.326-0.037 0.619-0.082 0.893-0.134 0.084-0.019 0.168-0.035 0.252-0.054 0.297-0.066 0.588-0.141 0.875-0.228l0.021-0.005c0.055-0.018 0.111-0.031 0.168-0.047 0.699-0.226 1.377-0.512 2.016-0.854l0.086-0.05 0.082-0.046c0.246-0.141 0.494-0.289 0.738-0.447 0.055-0.037 0.111-0.078 0.168-0.115l0.074-0.053c0.564-0.395 1.104-0.84 1.594-1.328l0.066-0.066 2.602 2.488-0.07 0.068c-0.584 0.588-1.197 1.116-1.83 1.581l-0.07 0.069c-0.701 0.506-1.484 0.97-2.326 1.372l-0.096 0.044c-0.367 0.176-0.746 0.336-1.123 0.479l-0.033 0.013c-0.088 0.035-0.178 0.07-0.268 0.1-0.223 0.076-0.402 0.139-0.574 0.193-0.264 0.083-0.512 0.156-0.762 0.217-0.131 0.034-0.262 0.062-0.396 0.092l-0.084 0.021c-0.195 0.041-0.387 0.084-0.582 0.117l-0.123 0.022c-0.096 0.019-0.193 0.037-0.293 0.052-0.291 0.044-0.602 0.082-0.947 0.109-0.113 0.016-0.229 0.02-0.34 0.03-0.373 0.024-0.705 0.038-1.02 0.042h-0.12m-54.431-3.97c6.328 0 11.473-5.147 11.473-11.472 0-6.326-5.145-11.473-11.473-11.473-0.025 0-4.557 0.002-7.02 0.004v22.934c2.463 0.01 6.994 0.01 7.02 0.01zm38.763-13.26c-0.871-5.739-5.875-10.05-11.686-10.05-5.81 0-10.815 4.311-11.685 10.05h23.371z" fill="#030404"/>
					<path d="m111.24 96.53l0.045 0.002c0.34 0.002 0.678 0.017 1.014 0.039 0.113 0.009 0.225 0.018 0.336 0.027 0.318 0.029 0.631 0.065 0.947 0.114 0.135 0.021 0.271 0.048 0.408 0.073 0.193 0.035 0.387 0.074 0.578 0.115 0.16 0.035 0.318 0.072 0.477 0.111 0.254 0.064 0.508 0.139 0.758 0.218 0.195 0.06 0.385 0.124 0.572 0.192 0.1 0.034 0.197 0.073 0.299 0.109 0.377 0.145 0.75 0.304 1.115 0.476l0.094 0.044c0.811 0.392 1.59 0.844 2.314 1.367l-0.01 0.014c0.68 0.488 1.309 1.035 1.896 1.624l-2.463 2.356c-0.494-0.492-1.031-0.941-1.605-1.341-0.084-0.057-0.16-0.112-0.244-0.167-0.242-0.16-0.492-0.311-0.744-0.453-0.061-0.029-0.113-0.064-0.17-0.096-0.643-0.348-1.324-0.635-2.031-0.859-0.064-0.019-0.125-0.036-0.191-0.055-0.287-0.088-0.584-0.163-0.881-0.229-0.086-0.018-0.17-0.034-0.254-0.051-0.297-0.059-0.598-0.104-0.902-0.14-0.074-0.007-0.148-0.02-0.229-0.026-0.377-0.037-0.754-0.057-1.141-0.057s-0.764 0.02-1.141 0.057c-0.078 0.007-0.152 0.02-0.229 0.026-0.305 0.036-0.604 0.081-0.898 0.14-0.088 0.017-0.172 0.033-0.256 0.051-0.297 0.065-0.592 0.141-0.881 0.229-0.064 0.019-0.129 0.036-0.191 0.055-0.705 0.225-1.387 0.512-2.031 0.859-0.059 0.031-0.111 0.066-0.168 0.096-0.256 0.143-0.504 0.293-0.746 0.453-0.084 0.055-0.162 0.11-0.246 0.167-3.096 2.155-5.129 5.735-5.129 9.796 0 4.057 2.033 7.639 5.129 9.795 0.084 0.055 0.162 0.111 0.246 0.168 0.242 0.159 0.49 0.309 0.746 0.451 0.057 0.031 0.109 0.065 0.168 0.096 0.645 0.346 1.326 0.635 2.031 0.857 0.062 0.02 0.127 0.039 0.191 0.059 0.289 0.086 0.584 0.16 0.881 0.228 0.084 0.018 0.168 0.032 0.256 0.052 0.295 0.055 0.594 0.102 0.898 0.138 0.076 0.009 0.15 0.021 0.229 0.028 0.377 0.036 0.754 0.057 1.141 0.057s0.764-0.021 1.141-0.057c0.08-0.008 0.154-0.02 0.229-0.028 0.305-0.036 0.605-0.083 0.902-0.138 0.084-0.02 0.168-0.034 0.254-0.052 0.297-0.067 0.594-0.142 0.881-0.228 0.066-0.02 0.127-0.039 0.191-0.059 0.707-0.223 1.389-0.512 2.031-0.857 0.057-0.03 0.109-0.064 0.17-0.096 0.252-0.143 0.502-0.292 0.744-0.451 0.084-0.057 0.16-0.113 0.244-0.168 0.574-0.4 1.111-0.85 1.605-1.34l2.463 2.354c-0.588 0.592-1.217 1.139-1.896 1.623l0.01 0.018c-0.725 0.521-1.504 0.973-2.314 1.365l-0.094 0.047c-0.365 0.172-0.738 0.33-1.115 0.472-0.102 0.038-0.199 0.075-0.299 0.111-0.188 0.065-0.377 0.13-0.572 0.19-0.25 0.081-0.504 0.152-0.758 0.217-0.158 0.041-0.316 0.078-0.477 0.111-0.191 0.045-0.385 0.082-0.578 0.117-0.137 0.025-0.273 0.053-0.408 0.074-0.316 0.049-0.629 0.083-0.947 0.111-0.111 0.012-0.223 0.018-0.336 0.028-0.336 0.021-0.674 0.038-1.014 0.04h-0.111c-0.342-0.002-0.68-0.02-1.012-0.04-0.111-0.011-0.227-0.017-0.34-0.028-0.318-0.028-0.631-0.062-0.941-0.111-0.139-0.021-0.275-0.049-0.412-0.074-0.193-0.035-0.385-0.072-0.578-0.117-0.158-0.033-0.32-0.07-0.479-0.111-0.254-0.064-0.508-0.136-0.76-0.217-0.191-0.061-0.377-0.125-0.568-0.19-0.1-0.036-0.199-0.073-0.297-0.111-0.377-0.142-0.754-0.3-1.115-0.472l-0.096-0.047c-0.812-0.393-1.592-0.844-2.314-1.365l0.008-0.018c-3.424-2.471-5.783-6.327-6.268-10.746h-23.952c0.824 5.789 5.783 10.242 11.797 10.242 2.672 0 5.129-0.889 7.115-2.375v-0.02c0.443-0.332 0.873-0.69 1.264-1.078l2.463 2.354c-2.781 3.332-7.898 4.525-10.842 4.525-6.068 0-11.312-3.523-13.797-8.637-2.453 4.849-7.475 8.172-13.281 8.172l-10.49-0.002v-29.751l10.49-0.004c5.807 0 10.828 3.327 13.281 8.176 2.484-5.114 7.729-8.641 13.797-8.641 5.992 0 11.18 3.441 13.703 8.45 1.115-2.206 2.742-4.11 4.729-5.548l-0.008-0.014c0.723-0.523 1.502-0.976 2.314-1.367l0.096-0.044c0.361-0.172 0.738-0.331 1.115-0.476 0.098-0.037 0.197-0.075 0.297-0.109 0.191-0.068 0.377-0.133 0.568-0.192 0.252-0.079 0.506-0.153 0.76-0.218 0.158-0.039 0.32-0.076 0.479-0.111 0.193-0.041 0.385-0.08 0.578-0.115 0.137-0.025 0.273-0.053 0.412-0.073 0.311-0.049 0.623-0.085 0.941-0.114 0.113-0.01 0.229-0.019 0.34-0.027 0.332-0.022 0.67-0.037 1.012-0.039l0.043-0.002h0.03m-39.2 13.649h23.594c-0.82-5.789-5.781-10.242-11.797-10.242-6.014 0-10.973 4.452-11.797 10.242m-15.281 13.26c6.389 0 11.568-5.181 11.568-11.568 0-6.389-5.18-11.57-11.568-11.57-0.025 0-4.676 0.004-7.117 0.006v23.126c2.441-0.01 7.091 0 7.117 0m54.481-27.104h-0.023l-0.031 0.002h-0.012c-0.314 0.002-0.646 0.017-1.027 0.041l-0.014 0.002c-0.107 0.008-0.217 0.016-0.326 0.023-0.355 0.033-0.662 0.07-0.955 0.115-0.094 0.016-0.186 0.033-0.277 0.049-0.045 0.01-0.092 0.02-0.139 0.026-0.217 0.04-0.408 0.079-0.584 0.118l-0.057 0.012c-0.141 0.032-0.287 0.062-0.432 0.1-0.242 0.064-0.496 0.137-0.768 0.222-0.213 0.065-0.418 0.138-0.574 0.194-0.102 0.035-0.201 0.074-0.301 0.111-0.393 0.148-0.775 0.311-1.133 0.482l-0.025 0.012-0.074 0.033c-0.838 0.404-1.629 0.872-2.34 1.383l-0.146 0.104 0.01 0.015c-1.846 1.369-3.385 3.151-4.471 5.182-1.273-2.387-3.15-4.404-5.447-5.85-2.469-1.554-5.324-2.377-8.256-2.377-2.97 0-5.855 0.842-8.345 2.434-2.319 1.479-4.2 3.541-5.456 5.977-1.238-2.303-3.057-4.25-5.277-5.646-2.395-1.503-5.16-2.298-8-2.298-0.102 0-10.447 0.002-10.492 0.002l-0.189 0.005v0.188 29.736 0.191l0.189 0.002c0.045 0 10.391 0.002 10.492 0.002 2.84 0 5.605-0.795 8-2.297 2.221-1.398 4.039-3.344 5.277-5.646 1.256 2.436 3.137 4.496 5.456 5.975 2.489 1.596 5.375 2.433 8.345 2.433 2.475 0 7.953-0.958 10.99-4.593l0.117-0.137-0.131-0.125-2.463-2.357-0.137-0.131-0.133 0.134c-0.352 0.349-0.756 0.696-1.244 1.06l-0.076 0.061v0.018c-2.031 1.494-4.422 2.281-6.924 2.281-2.842 0-5.582-1.031-7.719-2.903-2.057-1.804-3.422-4.267-3.854-6.954h23.564c0.512 4.219 2.752 8.065 6.182 10.607l-0.01 0.012 0.146 0.104c0.711 0.511 1.502 0.979 2.344 1.386l0.064 0.03 0.031 0.015c0.365 0.172 0.742 0.334 1.133 0.48 0.1 0.038 0.199 0.074 0.301 0.111 0.221 0.082 0.402 0.141 0.574 0.196 0.266 0.083 0.518 0.155 0.768 0.216 0.129 0.036 0.256 0.062 0.381 0.092l0.107 0.023c0.189 0.041 0.387 0.083 0.582 0.115l0.121 0.023c0.094 0.02 0.193 0.039 0.293 0.051 0.297 0.048 0.611 0.086 0.959 0.118 0.109 0.009 0.219 0.017 0.33 0.024l0.01 0.002c0.373 0.025 0.709 0.038 1.023 0.04h0.115c0.316-0.002 0.654-0.015 1.027-0.04 0.115-0.01 0.227-0.018 0.342-0.026 0.344-0.032 0.658-0.07 0.955-0.118 0.098-0.012 0.193-0.031 0.291-0.048l0.125-0.026c0.186-0.032 0.375-0.069 0.582-0.115l0.09-0.02c0.131-0.027 0.266-0.06 0.395-0.096 0.252-0.061 0.504-0.133 0.771-0.219 0.168-0.051 0.352-0.111 0.576-0.193 0.09-0.031 0.178-0.064 0.268-0.1l0.031-0.012c0.383-0.143 0.762-0.305 1.133-0.48l0.043-0.02 0.055-0.027c0.844-0.404 1.635-0.873 2.34-1.384l0.156-0.11-0.008-0.013c0.604-0.451 1.201-0.968 1.766-1.534l0.135-0.139-0.141-0.135-2.461-2.357-0.137-0.131-0.131 0.134c-0.486 0.482-1.02 0.927-1.584 1.319l-0.074 0.053c-0.055 0.037-0.109 0.074-0.164 0.111-0.24 0.16-0.486 0.308-0.734 0.445l-0.082 0.047-0.082 0.047c-0.633 0.342-1.309 0.625-2 0.845-0.055 0.019-0.109 0.034-0.168 0.05l-0.016 0.006c-0.289 0.086-0.58 0.16-0.871 0.225-0.086 0.016-0.168 0.035-0.25 0.051-0.275 0.053-0.562 0.097-0.887 0.138l-0.096 0.011-0.129 0.017c-0.4 0.036-0.768 0.056-1.123 0.056-0.354 0-0.721-0.02-1.123-0.056l-0.131-0.017-0.094-0.011c-0.322-0.041-0.611-0.085-0.885-0.138-0.08-0.016-0.166-0.035-0.248-0.051-0.295-0.064-0.586-0.139-0.869-0.225l-0.068-0.021-0.121-0.034c-0.691-0.22-1.365-0.503-1.998-0.845l-0.088-0.047-0.078-0.047c-0.26-0.146-0.506-0.297-0.732-0.445-0.078-0.049-0.152-0.104-0.227-0.156l-0.012-0.008c-3.162-2.199-5.051-5.801-5.051-9.637s1.889-7.439 5.051-9.638c0.078-0.056 0.158-0.11 0.238-0.165 0.227-0.15 0.475-0.3 0.736-0.443l0.072-0.045 0.09-0.051c0.633-0.341 1.305-0.625 1.998-0.846l0.105-0.029 0.084-0.025c0.283-0.085 0.574-0.16 0.867-0.223 0.084-0.019 0.17-0.035 0.25-0.051 0.27-0.055 0.559-0.098 0.885-0.139l0.225-0.025c0.395-0.039 0.764-0.055 1.123-0.055 0.363 0 0.729 0.016 1.123 0.055l0.129 0.014 0.096 0.012c0.326 0.041 0.617 0.084 0.887 0.139 0.082 0.016 0.164 0.032 0.25 0.049 0.291 0.064 0.582 0.14 0.867 0.225l0.055 0.016 0.133 0.041c0.697 0.219 1.367 0.503 2.002 0.844l0.084 0.05 0.078 0.046c0.246 0.135 0.492 0.285 0.734 0.443 0.062 0.041 0.121 0.082 0.18 0.123l0.062 0.042c0.561 0.391 1.094 0.834 1.58 1.319l0.131 0.132 0.137-0.13 2.461-2.357 0.141-0.135-0.135-0.139c-0.564-0.566-1.162-1.081-1.766-1.532l0.008-0.013-0.156-0.113c-0.705-0.51-1.496-0.977-2.344-1.384l-0.051-0.024-0.043-0.02c-0.365-0.174-0.748-0.336-1.131-0.482l-0.066-0.025c-0.078-0.03-0.156-0.059-0.238-0.086-0.156-0.057-0.359-0.129-0.576-0.194-0.27-0.085-0.521-0.157-0.768-0.222-0.148-0.037-0.297-0.07-0.447-0.104l-0.037-0.008c-0.191-0.042-0.383-0.08-0.582-0.118-0.051-0.009-0.096-0.017-0.146-0.026-0.09-0.018-0.18-0.034-0.27-0.049-0.293-0.045-0.605-0.082-0.955-0.115-0.115-0.008-0.227-0.016-0.34-0.023-0.383-0.026-0.719-0.041-1.029-0.043h-0.012l-0.04 0.077zm-38.975 13.654c0.432-2.688 1.797-5.15 3.854-6.954 2.137-1.872 4.877-2.901 7.719-2.901s5.586 1.029 7.719 2.901c2.059 1.804 3.42 4.267 3.855 6.954h-23.147zm-22.431-9.49c2.483-0.004 6.899-0.006 6.925-0.006 6.273 0 11.376 5.104 11.376 11.377 0 6.271-5.103 11.375-11.376 11.375-0.025 0-4.441-0.003-6.925-0.008v-22.73z" fill="#030404"/>
					<path d="m128.89 99.754c0 0.699-0.25 1.293-0.744 1.787-0.488 0.494-1.088 0.742-1.785 0.742-0.695 0-1.293-0.248-1.787-0.742-0.492-0.494-0.74-1.088-0.74-1.787 0-0.697 0.248-1.293 0.74-1.787 0.494-0.492 1.092-0.74 1.787-0.74 0.697 0 1.297 0.248 1.785 0.74 0.5 0.495 0.75 1.091 0.75 1.788m-0.56 0c0-0.543-0.193-1.01-0.576-1.4-0.385-0.389-0.85-0.585-1.395-0.585-0.543 0-1.006 0.196-1.391 0.585-0.387 0.391-0.576 0.857-0.576 1.4s0.189 1.012 0.576 1.399c0.385 0.392 0.848 0.585 1.391 0.585 0.545 0 1.01-0.193 1.395-0.585 0.37-0.39 0.57-0.86 0.57-1.406zm-0.6 1.196h-0.77l-0.73-0.924h-0.24v0.924h-0.594v-2.516h0.918c0.166 0 0.305 0.005 0.406 0.02 0.105 0.014 0.205 0.047 0.309 0.105 0.113 0.064 0.195 0.143 0.246 0.233 0.049 0.091 0.074 0.203 0.074 0.343 0 0.186-0.051 0.338-0.148 0.455-0.1 0.115-0.23 0.207-0.387 0.273l0.91 1.087zm-1.05-1.766c0-0.052-0.01-0.1-0.033-0.144-0.021-0.046-0.059-0.079-0.107-0.107-0.043-0.025-0.096-0.042-0.152-0.05s-0.127-0.01-0.215-0.01h-0.189v0.707h0.146c0.086 0 0.17-0.005 0.244-0.021 0.08-0.015 0.137-0.039 0.184-0.075 0.039-0.031 0.072-0.069 0.09-0.119 0.03-0.048 0.03-0.108 0.03-0.181z" fill="#030404"/>
					<polyline points="105.97 46.887 83.684 19.866 61.396 46.887 61.396 73.542 83.671 87.971 105.97 73.817 105.97 46.887" fill="#FFDA92"/>
					<polyline points="83.663 87.811 105.95 73.666 105.95 46.735 83.663 19.714 83.663 87.811" fill="#fff"/>
					<polyline points="83.649 87.803 83.663 87.794 83.663 19.698 61.376 46.719 61.376 73.374 83.649 87.803" fill="#fff"/>
					<polyline points="105.72 45.118 105.72 72.047 83.415 86.202 61.142 71.772 61.142 45.118 83.659 59.548 105.72 45.118" fill="#222020"/>
					<path d="m83.671 39.97c3.494 0.067 7.5-1.407 11.611-6.042l-11.598-14.062-0.013 0.018v20.086" fill="#222020"/>
					<path d="m83.684 39.97v-20.087l-11.613 14.045s4.85 5.91 11.613 6.042" fill="#636363"/>
					<polyline points="105.71 73.817 105.71 46.887 83.668 61.307 83.668 87.806 105.71 73.817" fill="#30499E"/>
					<polyline points="83.392 87.881 83.651 87.715 83.651 61.217 83.636 61.227 61.117 46.797 61.117 73.452 83.392 87.881" fill="#42B9EA"/>
					<path d="m83.671 16.516l24.451 29.644v29.17l-24.471 15.532-24.431-15.826v-28.876l24.453-29.644m21.099 30.803l-21.131-25.6-21.058 25.928v25.242l21.096 13.657 21.082-13.39 0.01-25.837z" fill="#222020"/>
					<polyline points="104.77 47.319 104.76 73.157 83.677 86.546 83.649 90.862 108.12 75.33 108.12 46.16 83.671 16.516 83.684 21.751 104.77 47.319" fill="#222020"/>
					<rect y="20.438" x="83.364" height="66.912" width=".666" fill="#222020"/>
		</g>
	</g>
</switch>
</svg>
