<?xml version="1.0" encoding="UTF-8" standalone="no"?>
<!-- Generator: Adobe Illustrator 16.0.0, SVG Export Plug-In . SVG Version: 6.00 Build 0)  -->
<!DOCTYPE svg  PUBLIC '-//W3C//DTD SVG 1.1//EN'  'http://www.w3.org/Graphics/SVG/1.1/DTD/svg11.dtd'>
<svg xmlns="http://www.w3.org/2000/svg" xml:space="preserve" height="81.96px" width="65.737px" version="1.1" y="0px" x="0px" xmlns:xlink="http://www.w3.org/1999/xlink" viewBox="0 0 65.737 81.96" enable-background="new 0 0 65.737 81.96">
<g id="icons">
	<g fill="#2781CF">
		<path d="m45.653 47.535h-11.659v-12.807c0-1.423-1.152-2.573-2.576-2.573-1.421 0-2.574 1.15-2.574 2.573v15.382c0 1.421 1.153 2.575 2.574 2.575h14.235c1.423 0 2.575-1.154 2.575-2.575 0.001-1.423-1.152-2.575-2.575-2.575z"/>
		<path d="m57.763 27.652l1.7-1.705 0.817 0.816c0.504 0.504 1.163 0.755 1.821 0.755 0.659 0 1.318-0.251 1.821-0.755 1.005-1.004 1.005-2.634 0-3.639l-2.583-2.584c-0.018-0.021-0.035-0.041-0.053-0.061-0.02-0.02-0.039-0.035-0.059-0.053l-2.574-2.575c-1.006-1.007-2.637-1.007-3.642-0.002-1.006 1.005-1.007 2.634-0.001 3.64l0.812 0.814-1.72 1.721c-3.681-3.124-8.056-5.453-12.856-6.72 1.441-1.822 2.307-4.12 2.307-6.619 0.002-5.89-4.792-10.685-10.683-10.685-5.894 0-10.688 4.795-10.688 10.687 0 2.499 0.865 4.799 2.308 6.619-14.08 3.714-24.49 16.554-24.49 31.785 0 18.124 14.745 32.869 32.87 32.869 18.123 0 32.867-14.745 32.867-32.869 0-8.184-3.008-15.681-7.974-21.439zm-30.431-16.965c0-3.053 2.484-5.537 5.538-5.537 3.053 0 5.535 2.484 5.535 5.537 0 3.052-2.484 5.537-5.535 5.537-3.054 0-5.538-2.486-5.538-5.537zm5.538 66.124c-15.284 0-27.722-12.435-27.722-27.72s12.438-27.718 27.722-27.718 27.718 12.433 27.718 27.718-12.434 27.72-27.718 27.72z"/>
	</g>
</g>
</svg>
