<?xml version="1.0" encoding="UTF-8" standalone="no"?>
<!-- Generator: Adobe Illustrator 16.0.0, SVG Export Plug-In . SVG Version: 6.00 Build 0)  -->
<!DOCTYPE svg  PUBLIC '-//W3C//DTD SVG 1.1//EN'  'http://www.w3.org/Graphics/SVG/1.1/DTD/svg11.dtd'>
<svg xmlns="http://www.w3.org/2000/svg" enable-background="new 0 0 143.534 143.541" xml:space="preserve" height="143.54px" width="143.53px" version="1.1" y="0px" x="0px" xmlns:xlink="http://www.w3.org/1999/xlink" viewBox="0 0 143.534 143.541">
<switch>
	<g>
		<g id="icons">
					<path d="m-0.001 71.771c0-39.644 32.133-71.771 71.772-71.771 39.637 0 71.764 32.127 71.764 71.771 0 39.629-32.127 71.77-71.764 71.77-39.644 0-71.777-32.14-71.777-71.769z" fill="#64B4E6"/>
				<path d="m70.842 21.781l-28.931 35.073c-0.161 0.024-0.321 0.066-0.469 0.147-0.455 0.248-0.737 0.725-0.737 1.243v0.071l-1.035 1.255v36.811l31.145 20.176 31.198-19.801v-37.189l-31.168-37.789zm-26.884 39.688l0.194-0.24 24.881 15.943v30.796l-25.075-16.248v-30.253zm28.759 15.627l24.813-16.23v30.928l-24.813 15.749v-30.444zm0-3.387v-22.113c3.678-0.393 7.721-2.207 11.872-6.481l11.164 13.525-23.036 15.069zm-15.532-28.523c1.948 1.929 6.283 5.561 11.849 6.34v22.28l-23.083-14.791 11.234-13.829z" fill="#fff"/>
		</g>
	</g>
</switch>
</svg>
