<?xml version="1.0" encoding="UTF-8" standalone="no"?>
<!-- Generator: Adobe Illustrator 16.0.0, SVG Export Plug-In . SVG Version: 6.00 Build 0)  -->
<!DOCTYPE svg  PUBLIC '-//W3C//DTD SVG 1.1//EN'  'http://www.w3.org/Graphics/SVG/1.1/DTD/svg11.dtd'>
<svg xmlns="http://www.w3.org/2000/svg" enable-background="new 0 0 81.602 81.616" xml:space="preserve" height="81.616px" width="81.602px" version="1.1" y="0px" x="0px" xmlns:xlink="http://www.w3.org/1999/xlink" viewBox="0 0 81.602 81.616">
<switch>
	<g>
		<g id="icons">
								<path d="m40.796 81.616c-0.001 0 0 0 0 0-9.634 0-18.992-3.434-26.354-9.667-8.32-7.045-13.397-16.905-14.3-27.767-0.9-10.861 2.482-21.425 9.528-29.744 7.77-9.175 19.128-14.438 31.163-14.438 9.63 0 18.987 3.433 26.349 9.664 17.171 14.539 19.313 40.339 4.776 57.513-7.77 9.177-19.128 14.439-31.162 14.439zm0.037-78.634c-11.156 0-21.685 4.878-28.887 13.384-6.531 7.711-9.667 17.502-8.831 27.57 0.835 10.067 5.542 19.208 13.255 25.738 6.822 5.778 15.497 8.961 24.425 8.961 11.156 0 21.686-4.878 28.888-13.385 13.475-15.919 11.488-39.834-4.428-53.311-6.823-5.776-15.497-8.957-24.422-8.957z" fill="#fff"/>
				<g fill="#fff">
					<path d="m36.345 16.81h-2.779l-1.875 7.207-1.95-7.207h-2.894c0.579 1.701 1.184 3.411 1.762 5.113 0.882 2.56 1.433 4.489 1.681 5.807v7.434h2.749v-7.434l3.306-10.92zm7.345 13.925v-4.791c0-1.462-0.251-2.529-0.771-3.223-0.687-0.934-1.649-1.401-2.892-1.401-1.234 0-2.201 0.468-2.886 1.401-0.528 0.693-0.776 1.761-0.776 3.223v4.791c0 1.453 0.248 2.531 0.776 3.217 0.685 0.933 1.651 1.4 2.886 1.4 1.242 0 2.205-0.468 2.892-1.4 0.52-0.685 0.771-1.764 0.771-3.217zm-2.48 0.467c0 1.266-0.383 1.898-1.182 1.898-0.8 0-1.184-0.633-1.184-1.898v-5.754c0-1.267 0.384-1.896 1.184-1.896 0.799 0 1.182 0.63 1.182 1.896v5.754zm11.645 3.961v-13.676h-2.479v10.453c-0.55 0.775-1.07 1.16-1.565 1.16-0.333 0-0.526-0.196-0.581-0.581-0.03-0.08-0.03-0.383-0.03-0.965v-10.067h-2.471v10.814c0 0.965 0.084 1.619 0.221 2.033 0.247 0.693 0.797 1.018 1.596 1.018 0.903 0 1.845-0.55 2.831-1.682v1.492h2.478z"/>
						<path d="m45.085 49.05c-0.403 0-0.812 0.193-1.223 0.596v8.252c0.41 0.408 0.819 0.602 1.223 0.602 0.707 0 1.066-0.602 1.066-1.824v-5.777c0-1.222-0.359-1.849-1.066-1.849z"/>
						<path d="m54.187 49.05c-0.82 0-1.23 0.627-1.23 1.879v1.251h2.451v-1.251c-0.001-1.252-0.412-1.879-1.221-1.879z"/>
						<path d="m60.181 42.169c-0.496-2.156-2.26-3.749-4.387-3.986-5.031-0.562-10.126-0.564-15.195-0.562-5.07-0.002-10.164 0-15.195 0.562-2.126 0.237-3.891 1.83-4.386 3.986-0.707 3.076-0.715 6.427-0.715 9.594 0 3.164 0 6.521 0.707 9.593 0.494 2.157 2.26 3.749 4.385 3.987 5.032 0.562 10.126 0.564 15.196 0.562 5.068 0.003 10.163 0 15.195-0.562 2.125-0.238 3.891-1.83 4.386-3.987 0.709-3.072 0.712-6.429 0.712-9.593 0-3.167 0.003-6.518-0.703-9.594zm-28.303 2.767h-2.939v15.606h-2.727v-15.606h-2.886v-2.559h8.552v2.559zm7.41 15.606h-2.455v-1.476c-0.975 1.117-1.9 1.663-2.803 1.663-0.791 0-1.335-0.321-1.579-1.008-0.136-0.412-0.217-1.056-0.217-2.012v-10.702h2.451v9.965c0 0.574 0 0.875 0.022 0.954 0.061 0.38 0.246 0.573 0.574 0.573 0.49 0 1.008-0.381 1.551-1.146v-10.346h2.455v13.535zm9.316-4.061c0 1.252-0.084 2.153-0.247 2.727-0.328 1.008-0.982 1.521-1.961 1.521-0.873 0-1.714-0.486-2.533-1.499v1.312h-2.453v-18.165h2.453v5.933c0.793-0.973 1.633-1.467 2.533-1.467 0.979 0 1.633 0.514 1.961 1.526 0.163 0.545 0.247 1.441 0.247 2.722v5.39zm9.256-2.258h-4.904v2.397c0 1.254 0.41 1.879 1.25 1.879 0.604 0 0.957-0.33 1.098-0.984 0.023-0.135 0.053-0.676 0.053-1.66h2.504v0.357c0 0.788-0.031 1.334-0.055 1.58-0.082 0.542-0.274 1.035-0.57 1.47-0.68 0.981-1.686 1.468-2.966 1.468-1.286 0-2.263-0.463-2.97-1.389-0.52-0.675-0.787-1.745-0.787-3.18v-4.742c0-1.447 0.236-2.505 0.758-3.189 0.707-0.928 1.686-1.387 2.936-1.387 1.231 0 2.207 0.459 2.895 1.387 0.513 0.685 0.76 1.742 0.76 3.189v2.804z"/>
				</g>
		</g>
	</g>
</switch>
</svg>
