<?xml version="1.0" encoding="UTF-8" standalone="no"?>
<!-- Generator: Adobe Illustrator 16.0.0, SVG Export Plug-In . SVG Version: 6.00 Build 0)  -->
<!DOCTYPE svg  PUBLIC '-//W3C//DTD SVG 1.1//EN'  'http://www.w3.org/Graphics/SVG/1.1/DTD/svg11.dtd'>
<svg xmlns="http://www.w3.org/2000/svg" enable-background="new 0 0 62.98 57.852" xml:space="preserve" height="57.852px" width="62.98px" version="1.1" y="0px" x="0px" xmlns:xlink="http://www.w3.org/1999/xlink" viewBox="0 0 62.98 57.852">
<switch>
	<g>
		<g id="icons">
			<g fill="#64B4E6">
				<path d="m34.193 25.329c-0.866 2.4-1.995 4.746-3.223 6.939l1.973 9.441 25.135-2.752-3.584-12.412c-0.209-0.721-0.869-1.217-1.618-1.217h-18.683v0.001z"/>
				<path d="m10.718 44.142c-1.345-1.607-2.87-3.535-4.395-5.682-0.296-0.416-0.598-0.854-0.9-1.299l-2.255 7.805 7.55-0.824z"/>
					<path d="m27.086 38.384c-0.02 0.029-0.041 0.061-0.062 0.088-1.092 1.541-2.183 2.963-3.207 4.234l4.081-0.445-0.812-3.877z"/>
					<path d="m59.502 43.888l-25.521 2.789 2.334 11.174h24.979c0.53 0 1.027-0.248 1.347-0.672 0.318-0.422 0.419-0.971 0.272-1.479l-3.411-11.812zm3.412 11.812"/>
					<path d="m0.1 55.595c-0.066 0.177-0.1 0.369-0.1 0.572 0 0.93 0.753 1.684 1.683 1.684h29.472l-2.219-10.621-27.284 2.986-1.552 5.379zm1.552-5.379"/>
					<path d="m17.373 46.282c1.532-1.629 4.557-4.998 7.592-9.271 3.829-5.389 8.393-13.289 8.393-20.332 0-9.197-7.482-16.678-16.678-16.678-9.199 0-16.68 7.48-16.68 16.678 0 7.039 4.558 14.932 8.383 20.318 3.035 4.273 6.065 7.652 7.6 9.285 0.182 0.191 0.434 0.301 0.697 0.301 0.261 0 0.515-0.109 0.693-0.301zm-0.693-40.006c5.615 0 10.183 4.57 10.183 10.186 0 5.611-4.567 10.186-10.183 10.186-5.617 0-10.185-4.574-10.185-10.186 0-5.615 4.567-10.186 10.185-10.186z"/>
			</g>
		</g>
	</g>
</switch>
</svg>
