<?xml version="1.0" encoding="UTF-8" standalone="no"?>
<!-- Generator: Adobe Illustrator 16.0.0, SVG Export Plug-In . SVG Version: 6.00 Build 0)  -->
<!DOCTYPE svg  PUBLIC '-//W3C//DTD SVG 1.1//EN'  'http://www.w3.org/Graphics/SVG/1.1/DTD/svg11.dtd'>
<svg xmlns="http://www.w3.org/2000/svg" enable-background="new 0 0 143.535 143.541" xml:space="preserve" height="143.54px" width="143.54px" version="1.1" y="0px" x="0px" xmlns:xlink="http://www.w3.org/1999/xlink" viewBox="0 0 143.535 143.541">
<switch>
	<g>
		<g id="icons">
				<path d="m0 71.771c0-39.645 32.133-71.77 71.771-71.77 39.637 0 71.764 32.125 71.764 71.77 0 39.629-32.127 71.771-71.764 71.771-39.643 0-71.776-32.14-71.776-71.769z" fill="#64B4E6"/>
				<path d="m71.485 33.606h-39.57v3.941h19.818c-0.583 2.67-1.233 5.625-2.229 9.312 4.896-4.791 16.874-4.652 21.98 3.783v-17.036zm-0.415 12.401c-5.005-5.363-14.064-5.492-17.314-4.018 0.41-1.383 0.766-3.068 1.116-4.311h16.198v8.329z" fill="#fff"/>
				<path d="m114.08 50.142v7.045h4.589s-0.021-7.045-0.009-7.045c0-1.088-0.762-1.994-1.773-2.23v-14.306h-45.403v16.797c5.289-8.195 17.261-8.334 22.159-3.543-0.991-3.688-1.643-6.643-2.23-9.312h24.451v10.363c-1.01 0.235-1.78 1.141-1.78 2.231m-42.008-4.135v-8.328h16.206c0.344 1.242 0.702 2.928 1.114 4.311-3.246-1.475-12.308-1.346-17.32 4.017z" fill="#fff"/>
				<path d="m71.323 72.8l-3.101-3.146c2.656-2.551 4.321-6.133 4.321-10.111 0-7.738-6.272-14.016-14.015-14.016-3.454 0-6.613 1.26-9.061 3.336h-17.709c0 17.758 1.912 56.812 39.55 72.732 0-4.97 0.015-48.8 0.015-48.8m-0.405 45.72c-7.641-3.57-13.729-8.307-18.548-13.816 4.312-6.588 4.437-18.232 3.674-22.975 0.063 4.02-1.675 16.188-6.376 19.609-10.389-13.954-13.708-31.976-13.708-48.708h10.394c-1.166 2.043-1.839 4.402-1.839 6.92 0 7.738 6.276 14.016 14.015 14.016 2.858 0 5.515-0.861 7.73-2.332l4.658 4.719v42.575z" fill="#fff"/>
				<path d="m93.514 48.862c-2.441-2.076-5.604-3.336-9.059-3.336-5.866 0-10.881 3.607-12.97 8.717v10.594c0.722 1.76 1.781 3.346 3.106 4.664l-3.268 3.299s-0.016 43.146-0.016 48.795c37.634-15.92 39.548-54.975 39.548-72.732h-17.346zm-6.897 32.864c-0.758 4.734-0.631 16.348 3.656 22.941-4.815 5.531-10.916 10.277-18.578 13.85v-42.529l4.835-4.895c2.254 1.551 4.985 2.461 7.925 2.461 7.736 0 14.014-6.277 14.014-14.016 0-2.518-0.674-4.877-1.839-6.92h10.025c0 16.725-3.318 34.736-13.687 48.689-4.685-3.448-6.417-15.577-6.356-19.584z" fill="#fff"/>
				<path d="m84.455 53.38c-0.594 0-1.158 0.088-1.701 0.246 1.173 0.326 2.041 1.393 2.041 2.666 0 1.539-1.247 2.781-2.781 2.781-1.539 0-2.783-1.242-2.783-2.781l0.004-0.004c-0.592 0.945-0.939 2.057-0.939 3.254 0 3.4 2.758 6.162 6.16 6.162 3.404 0 6.156-2.762 6.156-6.162-0.001-3.402-2.753-6.162-6.157-6.162" fill="#64B4E6"/>
				<path d="m58.529 53.38c-0.589 0-1.158 0.088-1.703 0.246 1.176 0.326 2.041 1.393 2.041 2.666 0 1.539-1.243 2.781-2.779 2.781-1.537 0-2.78-1.242-2.78-2.781v-0.004c-0.59 0.945-0.938 2.057-0.938 3.254 0 3.4 2.757 6.162 6.159 6.162 3.404 0 6.159-2.762 6.159-6.162 0-3.402-2.754-6.162-6.159-6.162" fill="#64B4E6"/>
		</g>
	</g>
</switch>
</svg>
