<?xml version="1.0" encoding="UTF-8" standalone="no"?>
<!-- Generator: Adobe Illustrator 16.0.0, SVG Export Plug-In . SVG Version: 6.00 Build 0)  -->
<!DOCTYPE svg  PUBLIC '-//W3C//DTD SVG 1.1//EN'  'http://www.w3.org/Graphics/SVG/1.1/DTD/svg11.dtd'>
<svg xmlns="http://www.w3.org/2000/svg" enable-background="new 0 0 72.137 59.115" xml:space="preserve" height="59.115px" width="72.137px" version="1.1" y="0px" x="0px" xmlns:xlink="http://www.w3.org/1999/xlink" viewBox="0 0 72.137 59.115">
<switch>
	<g>
		<g id="icons">
				<path d="m4.606 47.671h-3.018c-0.954 0-1.588-0.635-1.588-1.594 0-0.949 0.634-1.59 1.588-1.59h1.435v1.59c-0.001 0.959 0.795 1.594 1.583 1.594zm67.531-1.594c0 0.959-0.638 1.594-1.589 1.594h-19.063v1.107c1.108 0.168 2.063 1.117 2.063 2.393 0 1.26-1.117 2.375-2.381 2.375h-30.193c-1.268 0-2.389-1.115-2.389-2.375 0-1.275 0.959-2.225 2.067-2.393v-1.107h-16.046c-0.95 0-1.584-0.635-1.584-1.594v-22.088c0-0.941 0.634-1.584 1.584-1.584h16.046v-4.768c0-1.275 1.117-2.385 2.392-2.385h10.646v-12.868c0-1.268 1.108-2.385 2.379-2.385 1.276 0 2.226 0.959 2.381 2.234h8.9c0.473 0 0.793 0.316 0.793 0.791v6.67c0 0.482-0.32 0.799-0.793 0.799h-8.9v4.76h10.643c1.277 0 2.394 1.109 2.394 2.385v4.768h16.046c0.95 0 1.588 0.643 1.588 1.584v20.498h1.429c0.795-0.001 1.587 0.798 1.587 1.589zm-25.424-1.59v-24.466h-21.289v28.758h2.538v-11.753c0-1.275 1.117-2.385 2.385-2.385h11.44c1.271 0 2.379 1.109 2.379 2.385v11.752h2.547v-4.291zm-26.061 0v-15.088h-14.455v15.088h14.455zm45.287 0v-15.088h-14.454v15.088h14.454zm-8.736-12.861h-3.183c-0.471 0-0.792 0.309-0.792 0.789v3.186c0 0.467 0.321 0.791 0.792 0.791h3.184c0.471 0 0.793-0.324 0.793-0.791v-3.186c-0.001-0.48-0.476-0.789-0.794-0.789zm-22.726-9.221h-5.561c-0.475 0-0.791 0.324-0.791 0.801v3.176c0 0.475 0.316 0.793 0.791 0.793h5.561c0.483 0 0.805-0.318 0.805-0.793v-3.176c-0.001-0.477-0.484-0.801-0.805-0.801zm0 6.045h-5.561c-0.475 0-0.791 0.314-0.791 0.789v3.176c0 0.477 0.316 0.793 0.791 0.793h5.561c0.483 0 0.805-0.316 0.805-0.793v-3.176c-0.001-0.474-0.484-0.789-0.805-0.789zm8.898-6.045h-5.56c-0.471 0-0.793 0.324-0.793 0.801v3.176c0 0.475 0.322 0.793 0.793 0.793h5.56c0.476 0 0.791-0.318 0.791-0.793v-3.176c0-0.477-0.315-0.801-0.791-0.801zm0 6.045h-5.56c-0.471 0-0.793 0.314-0.793 0.789v3.176c0 0.477 0.322 0.793 0.793 0.793h5.56c0.476 0 0.791-0.316 0.791-0.793v-3.176c0-0.474-0.315-0.789-0.791-0.789zm13.828 9.367h-3.183c-0.471 0-0.792 0.318-0.792 0.801v3.168c0 0.482 0.321 0.799 0.792 0.799h3.184c0.471 0 0.793-0.316 0.793-0.799v-3.168c-0.001-0.482-0.476-0.801-0.794-0.801zm6.51-6.191h-3.175c-0.479 0-0.8 0.309-0.8 0.789v3.186c0 0.467 0.32 0.791 0.8 0.791h3.175c0.48 0 0.797-0.324 0.797-0.791v-3.186c0-0.48-0.317-0.789-0.797-0.789zm0 6.191h-3.175c-0.479 0-0.8 0.318-0.8 0.801v3.168c0 0.482 0.32 0.799 0.8 0.799h3.175c0.48 0 0.797-0.316 0.797-0.799v-3.168c0-0.482-0.317-0.801-0.797-0.801zm-52.113-6.191h-3.184c-0.472 0-0.788 0.309-0.788 0.789v3.186c0 0.467 0.316 0.791 0.788 0.791h3.184c0.476 0 0.792-0.324 0.792-0.791v-3.186c0-0.48-0.317-0.789-0.792-0.789zm0 6.191h-3.184c-0.472 0-0.788 0.318-0.788 0.801v3.168c0 0.482 0.316 0.799 0.788 0.799h3.184c0.476 0 0.792-0.316 0.792-0.799v-3.168c0-0.482-0.317-0.801-0.792-0.801zm6.518-6.191h-3.181c-0.479 0-0.795 0.309-0.795 0.789v3.186c0 0.467 0.316 0.791 0.795 0.791h3.181c0.467 0 0.792-0.324 0.792-0.791v-3.186c0-0.48-0.325-0.789-0.792-0.789zm0 6.191h-3.181c-0.479 0-0.795 0.318-0.795 0.801v3.168c0 0.482 0.316 0.799 0.795 0.799h3.181c0.467 0 0.792-0.316 0.792-0.799v-3.168c0-0.482-0.325-0.801-0.792-0.801zm37.81 16.522h-39.718c-1.272 0-2.385 1.115-2.385 2.383 0 1.275 1.112 2.393 2.385 2.393h39.718c1.275 0 2.384-1.117 2.384-2.393 0-1.268-1.109-2.383-2.384-2.383z" fill="#fff"/>
		</g>
	</g>
</switch>
</svg>
