<?xml version="1.0" encoding="UTF-8" standalone="no"?>
<svg id="svg2" xmlns:rdf="http://www.w3.org/1999/02/22-rdf-syntax-ns#" xmlns="http://www.w3.org/2000/svg" xml:space="preserve" height="143.54" width="143.54" version="1.1" xmlns:cc="http://creativecommons.org/ns#" viewBox="0 0 191.38667 191.38667" xmlns:dc="http://purl.org/dc/elements/1.1/"><metadata id="metadata8"><rdf:RDF><cc:Work rdf:about=""><dc:format>image/svg+xml</dc:format><dc:type rdf:resource="http://purl.org/dc/dcmitype/StillImage"/></cc:Work></rdf:RDF></metadata><g id="g10" transform="matrix(1.3333 0 0 -1.3333 0 191.39)"><g id="g12" transform="scale(.1)"><path id="path14" d="m0 717.7c0 396.45 321.33 717.71 717.72 717.71 396.36 0 717.64-321.26 717.64-717.71 0-396.28-321.3-717.7-717.68-717.7-396.39 0-717.72 321.42-717.72 717.7" fill="#64b4e6"/><path id="path16" d="m407.44 617.6h-44.16c-5.586 0-9.277-3.68-9.277-9.18v-53.44c0-5.468 3.691-9.16 9.277-9.16h44.16c5.579 0 9.258 3.692 9.258 9.16v53.438c0 5.5-3.679 9.18-9.258 9.18" fill="#fff"/><path id="path18" d="m407.44 514.43h-44.16c-5.586 0-9.277-3.606-9.277-9.184v-53.437c0-5.477 3.691-9.16 9.277-9.16h44.16c5.579 0 9.258 3.683 9.258 9.16v53.437c0 3.692-3.679 9.184-9.258 9.184" fill="#fff"/><path id="path20" d="m497.75 617.6h-44.258c-5.488 0-9.18-3.68-9.18-9.18v-53.44c0-5.468 3.692-9.16 9.18-9.16h44.258c5.488 0 9.172 3.692 9.172 9.16v53.438c0 5.5-3.684 9.18-9.172 9.18" fill="#fff"/><path id="path22" d="m497.75 514.43h-44.258c-5.488 0-9.18-3.606-9.18-9.184v-53.437c0-5.477 3.692-9.16 9.18-9.16h44.258c5.488 0 9.172 3.683 9.172 9.16v53.437c0 3.692-3.684 9.184-9.172 9.184" fill="#fff"/><path id="path24" d="m777.77 545.82h44.168c5.586 0 9.265 3.692 9.265 9.16v53.438c0 5.5-3.679 9.18-9.265 9.18h-44.168c-5.571 0-9.25-3.68-9.25-9.18v-53.44c0-3.671 3.679-9.16 9.25-9.16" fill="#fff"/><path id="path26" d="m777.77 442.64h44.168c5.586 0 9.265 3.683 9.265 9.16v53.437c0 5.578-3.679 9.184-9.265 9.184h-44.168c-5.571 0-9.25-3.606-9.25-9.184v-53.437c0-5.477 3.679-9.16 9.25-9.16" fill="#fff"/><path id="path28" d="m867.99 545.82h44.258c5.488 0 9.18 3.692 9.18 9.16v53.438c0 5.5-3.692 9.18-9.18 9.18h-44.258c-5.476 0-9.172-3.68-9.172-9.18v-53.44c0-3.671 3.696-9.16 9.172-9.16" fill="#fff"/><path id="path30" d="m867.99 442.64h44.258c5.488 0 9.18 3.683 9.18 9.16v53.437c0 5.578-3.692 9.184-9.18 9.184h-44.258c-5.476 0-9.172-3.606-9.172-9.184v-53.437c0-5.477 3.696-9.16 9.172-9.16" fill="#fff"/><path id="path32" d="m407.44 718.96h-44.16c-5.586 0-9.277-3.684-9.277-9.258v-53.43c0-5.476 3.691-9.168 9.277-9.168h44.16c5.579 0 9.258 3.692 9.258 9.168v53.43c0 5.574-3.679 9.258-9.258 9.258" fill="#fff"/><path id="path34" d="m497.75 718.96h-44.258c-5.488 0-9.18-3.684-9.18-9.258v-53.43c0-5.476 3.692-9.168 9.18-9.168h44.258c5.488 0 9.172 3.692 9.172 9.168v53.43c0 5.574-3.684 9.258-9.172 9.258" fill="#fff"/><path id="path36" d="m777.77 647.11h44.168c5.586 0 9.265 3.692 9.265 9.168v53.43c0 5.574-3.679 9.258-9.265 9.258h-44.168c-5.571 0-9.25-3.684-9.25-9.258v-53.43c0-5.476 3.679-9.168 9.25-9.168" fill="#fff"/><path id="path38" d="m867.99 647.11h44.258c5.488 0 9.18 3.692 9.18 9.168v53.43c0 5.574-3.692 9.258-9.18 9.258h-44.258c-5.476 0-9.172-3.684-9.172-9.258v-53.43c0-5.476 3.696-9.168 9.172-9.168" fill="#fff"/><path id="path40" d="m974.84 409.45h-261.56v178.74c0 42.363-35 75.457-75.554 75.457-40.481 0-75.481-34.981-75.481-75.457v-178.74h-259.77v359.26h206.34c14.661 0 27.622 12.871 27.622 27.629v180.52l103.16 55.24 103.2-55.24v-180.52c0-14.758 12.852-27.629 27.605-27.629h206.36v-359.26zm27.626 469.82h-206.29v66.3l14.656-7.382c12.961-7.364 29.516-1.895 36.887 11.074 7.383 12.871 1.797 29.402-11.074 36.777l-186.02 99.495c-7.371 3.69-18.437 3.69-25.82 0l-186.09-99.46c-12.871-7.375-18.359-23.906-10.977-36.777 5.489-9.278 14.661-14.746 23.926-14.746 3.692 0 9.168 1.777 12.863 3.672l14.747 7.382v-66.3h-206.35c-14.746 0-27.609-12.938-27.609-27.704v-471.63c0-14.66 12.863-27.609 27.609-27.609h727.72c14.75 0 27.6 12.949 27.6 27.609v473.52c1.81 14.746-11.05 25.809-25.81 25.809" fill="#fff"/><path id="path42" d="m702.21 893.93c0-35.617-28.867-64.406-64.48-64.406-35.637 0-64.504 28.789-64.504 64.406 0 35.625 28.867 64.504 64.504 64.504 35.613 0 64.48-28.879 64.48-64.504" fill="#fff"/><path id="path44" d="m751 689.3c-97.246 97.25-97.246 254.91 0 352.16 97.258 97.24 254.92 97.26 352.17 0 97.24-97.243 97.24-254.92-0.02-352.16-97.23-97.235-254.9-97.235-352.15 0" fill="#64b4e6"/><path id="path46" d="m927.09 1082.6c-58.028 0-112.58-22.6-153.61-63.63-41.028-41.021-63.622-95.572-63.622-153.6s22.594-112.58 63.622-153.61c41.035-41.023 95.585-63.621 153.61-63.621 58.015 0 112.56 22.598 153.58 63.621 41.04 41.027 63.64 95.578 63.64 153.61 0.01 58.027-22.59 112.58-63.62 153.6-41.02 41.03-95.573 63.63-153.6 63.63zm0-498.03c-75.02 0-145.54 29.199-198.57 82.234-53.028 53.039-82.246 123.56-82.246 198.57 0 75.007 29.21 145.53 82.246 198.57 53.046 53.03 123.56 82.24 198.57 82.24 75 0 145.53-29.21 198.55-82.24 53.05-53.04 82.25-123.56 82.25-198.57 0-75.02-29.21-145.53-82.26-198.57-53.02-53.035-123.54-82.234-198.54-82.234" fill="#fff"/><path id="path48" d="m850.8 769.22c-49.883 51.66-125.06 38.093-53.418-33.528 71.621-71.629 187.77-71.629 259.4 0 67.97 67.961-101.29-74.89-205.98 33.528" fill="#fff"/><path id="path50" d="m1276.1 487.83c-8.13 0-16.27 3.106-22.48 9.309l-171.08 171.08c-12.41 12.422-12.41 32.547 0 44.961 12.41 12.421 32.54 12.421 44.95 0l171.09-171.09c12.42-12.41 12.42-32.547 0-44.957-6.21-6.203-14.34-9.309-22.48-9.309" fill="#fff"/></g></g></svg>
